ffmpeg version 6.1.1-3ubuntu5 Copyright (c) 2000-2023 the FFmpeg developers
  built with gcc 13 (Ubuntu 13.2.0-23ubuntu3)
  configuration: --prefix=/usr --extra-version=3ubuntu5 --toolchain=hardened --libdir=/usr/lib/x86_64-linux-gnu --incdir=/usr/include/x86_64-linux-gnu --arch=amd64 --enable-gpl --disable-stripping --disable-omx --enable-gnutls --enable-libaom --enable-libass --enable-libbs2b --enable-libcaca --enable-libcdio --enable-libcodec2 --enable-libdav1d --enable-libflite --enable-libfontconfig --enable-libfreetype --enable-libfribidi --enable-libglslang --enable-libgme --enable-libgsm --enable-libharfbuzz --enable-libmp3lame --enable-libmysofa --enable-libopenjpeg --enable-libopenmpt --enable-libopus --enable-librubberband --enable-libshine --enable-libsnappy --enable-libsoxr --enable-libspeex --enable-libtheora --enable-libtwolame --enable-libvidstab --enable-libvorbis --enable-libvpx --enable-libwebp --enable-libx265 --enable-libxml2 --enable-libxvid --enable-libzimg --enable-openal --enable-opencl --enable-opengl --disable-sndio --enable-libvpl --disable-libmfx --enable-libdc1394 --enable-libdrm --enable-libiec61883 --enable-chromaprint --enable-frei0r --enable-ladspa --enable-libbluray --enable-libjack --enable-libpulse --enable-librabbitmq --enable-librist --enable-libsrt --enable-libssh --enable-libsvtav1 --enable-libx264 --enable-libzmq --enable-libzvbi --enable-lv2 --enable-sdl2 --enable-libplacebo --enable-librav1e --enable-pocketsphinx --enable-librsvg --enable-libjxl --enable-shared
  libavutil      58. 29.100 / 58. 29.100
  libavcodec     60. 31.102 / 60. 31.102
  libavformat    60. 16.100 / 60. 16.100
  libavdevice    60.  3.100 / 60.  3.100
  libavfilter     9. 12.100 /  9. 12.100
  libswscale      7.  5.100 /  7.  5.100
  libswresample   4. 12.100 /  4. 12.100
  libpostproc    57.  3.100 / 57.  3.100
[x11grab @ 0x561b21388540] Stream #0: not enough frames to estimate rate; consider increasing probesize
Input #0, x11grab, from ':101':
  Duration: N/A, start: 1781198807.767908, bitrate: 884736 kb/s
  Stream #0:0: Video: rawvideo (BGR[0] / 0x524742), bgr0, 1280x720, 884736 kb/s, 30 fps, 1000k tbr, 1000k tbn
Stream mapping:
  Stream #0:0 -> #0:0 (rawvideo (native) -> h264 (libx264))
Press [q] to stop, [?] for help
[libx264 @ 0x561b213912c0] using cpu capabilities: MMX2 SSE2Fast SSSE3 SSE4.2 AVX FMA3 BMI2 AVX2 AVX512
[libx264 @ 0x561b213912c0] profile High, level 3.1, 4:2:0, 8-bit
[libx264 @ 0x561b213912c0] 264 - core 164 r3108 31e19f9 - H.264/MPEG-4 AVC codec - Copyleft 2003-2023 - http://www.videolan.org/x264.html - options: cabac=1 ref=3 deblock=1:0:0 analyse=0x3:0x113 me=hex subme=7 psy=1 psy_rd=1.00:0.00 mixed_ref=1 me_range=16 chroma_me=1 trellis=1 8x8dct=1 cqm=0 deadzone=21,11 fast_pskip=1 chroma_qp_offset=-2 threads=6 lookahead_threads=1 sliced_threads=0 nr=0 decimate=1 interlaced=0 bluray_compat=0 constrained_intra=0 bframes=3 b_pyramid=2 b_adapt=1 b_bias=0 direct=1 weightb=1 open_gop=0 weightp=2 keyint=250 keyint_min=15 scenecut=40 intra_refresh=0 rc_lookahead=40 rc=crf mbtree=1 crf=32.0 qcomp=0.60 qpmin=0 qpmax=69 qpstep=4 ip_ratio=1.40 aq=1:1.00
Output #0, mp4, to '/workspace/challenges/evidence-workflow-demo/attempts/example-playwright-evidence/evidence/participant.mp4':
  Metadata:
    encoder         : Lavf60.16.100
  Stream #0:0: Video: h264 (avc1 / 0x31637661), yuv420p(tv, progressive), 1280x720, q=2-31, 15 fps, 15360 tbn
    Metadata:
      encoder         : Lavc60.31.102 libx264
    Side data:
      cpb: bitrate max/min/avg: 0/0/0 buffer size: 0 vbv_delay: N/A
frame=    0 fps=0.0 q=0.0 size=       0kB time=N/A bitrate=N/A speed=N/A    
frame=    0 fps=0.0 q=0.0 size=       0kB time=N/A bitrate=N/A speed=N/A    
frame=    0 fps=0.0 q=0.0 size=       0kB time=N/A bitrate=N/A speed=N/A    
frame=    0 fps=0.0 q=0.0 size=       0kB time=N/A bitrate=N/A speed=N/A    
frame=    0 fps=0.0 q=0.0 size=       0kB time=N/A bitrate=N/A speed=N/A    
frame=    0 fps=0.0 q=0.0 size=       0kB time=N/A bitrate=N/A speed=N/A    
frame=    0 fps=0.0 q=0.0 size=       0kB time=N/A bitrate=N/A speed=N/A    
frame=    6 fps=1.6 q=36.0 size=       0kB time=00:00:00.20 bitrate=   1.9kbits/s speed=0.0545x    
frame=   13 fps=3.1 q=36.0 size=       0kB time=00:00:00.73 bitrate=   0.5kbits/s speed=0.175x    
frame=   21 fps=4.5 q=36.0 size=       0kB time=00:00:01.20 bitrate=   0.3kbits/s speed=0.255x    
frame=   29 fps=5.5 q=36.0 size=       0kB time=00:00:01.73 bitrate=   0.2kbits/s speed=0.331x    
frame=   37 fps=6.4 q=36.0 size=       0kB time=00:00:02.26 bitrate=   0.2kbits/s speed=0.393x    
frame=   45 fps=7.1 q=36.0 size=       0kB time=00:00:02.80 bitrate=   0.1kbits/s speed=0.445x    
frame=   53 fps=7.8 q=36.0 size=       0kB time=00:00:03.33 bitrate=   0.1kbits/s speed=0.488x    
frame=   61 fps=8.3 q=36.0 size=       0kB time=00:00:03.86 bitrate=   0.1kbits/s speed=0.525x    
frame=   69 fps=8.7 q=36.0 size=       0kB time=00:00:04.40 bitrate=   0.1kbits/s speed=0.557x    
frame=   77 fps=9.1 q=36.0 size=       0kB time=00:00:04.93 bitrate=   0.1kbits/s speed=0.585x    
frame=   85 fps=9.5 q=36.0 size=       0kB time=00:00:05.46 bitrate=   0.1kbits/s speed=0.609x    
frame=   93 fps=9.8 q=36.0 size=       0kB time=00:00:06.00 bitrate=   0.1kbits/s speed=0.632x    
frame=  101 fps= 10 q=36.0 size=       0kB time=00:00:06.53 bitrate=   0.1kbits/s speed=0.651x    
frame=  109 fps= 10 q=36.0 size=       0kB time=00:00:07.06 bitrate=   0.1kbits/s speed=0.669x    
[mp4 @ 0x561b21390700] Starting second pass: moving the moov atom to the beginning of the file
[out#0/mp4 @ 0x561b2138fa80] video:54kB audio:0kB subtitle:0kB other streams:0kB global headers:0kB muxing overhead: 4.993216%
frame=  159 fps= 15 q=-1.0 Lsize=      57kB time=00:00:10.40 bitrate=  44.6kbits/s speed=0.976x    
[libx264 @ 0x561b213912c0] frame I:3     Avg QP:16.69  size:  6569
[libx264 @ 0x561b213912c0] frame P:40    Avg QP:23.53  size:   680
[libx264 @ 0x561b213912c0] frame B:116   Avg QP:30.12  size:    66
[libx264 @ 0x561b213912c0] consecutive B-frames:  2.5%  0.0%  1.9% 95.6%
[libx264 @ 0x561b213912c0] mb I  I16..4: 74.3% 22.0%  3.7%
[libx264 @ 0x561b213912c0] mb P  I16..4:  2.1%  2.8%  0.4%  P16..4:  0.4%  0.1%  0.0%  0.0%  0.0%    skip:94.3%
[libx264 @ 0x561b213912c0] mb B  I16..4:  0.0%  0.1%  0.0%  B16..8:  0.9%  0.0%  0.0%  direct: 0.0%  skip:98.9%  L0:54.3% L1:45.5% BI: 0.1%
[libx264 @ 0x561b213912c0] 8x8 transform intra:36.2% inter:25.1%
[libx264 @ 0x561b213912c0] coded y,uvDC,uvAC intra: 3.3% 5.1% 3.7% inter: 0.0% 0.0% 0.0%
[libx264 @ 0x561b213912c0] i16 v,h,dc,p: 87% 10%  2%  0%
[libx264 @ 0x561b213912c0] i8 v,h,dc,ddl,ddr,vr,hd,vl,hu: 41% 18% 39%  0%  0%  0%  0%  0%  1%
[libx264 @ 0x561b213912c0] i4 v,h,dc,ddl,ddr,vr,hd,vl,hu: 38% 25% 19%  2%  3%  4%  4%  3%  3%
[libx264 @ 0x561b213912c0] i8c dc,h,v,p: 92%  5%  3%  0%
[libx264 @ 0x561b213912c0] Weighted P-Frames: Y:0.0% UV:0.0%
[libx264 @ 0x561b213912c0] ref P L0: 85.2%  5.5%  8.1%  1.2%
[libx264 @ 0x561b213912c0] ref B L0: 72.9% 26.0%  1.1%
[libx264 @ 0x561b213912c0] ref B L1: 96.6%  3.4%
[libx264 @ 0x561b213912c0] kb/s:41.20
Exiting normally, received signal 2.
